<?xml version="1.0" encoding="UTF-8"?>
<svg id="Layer_2" xmlns="http://www.w3.org/2000/svg" viewBox="0 0 53.31 139.15">
  <defs>
    <style>
      .cls-1 {
        fill: #28789f;
      }
    </style>
  </defs>
  <g id="Layer_1-2" data-name="Layer_1">
    <path class="cls-1" d="M52.78,113.9c-.77,6.11-2.46,14.87-6.76,25.26H7.29c-4.3-10.38-5.99-19.15-6.74-25.26-.85-6.66-.75-11.81.48-33.95.53-9.44,1.01-17.65,1.42-24.24l.02-1.01c-2.2-11.25-.19-21.71,7.39-31.34,1.33-1.74,3.04-3.19,4.71-4.95-2.17-4.8-1.55-9.92-.46-14.7.31-1.5,3.16-3.28,4.9-3.43,5.48-.41,10.99-.36,16.44.19,1.83.19,4.68,2.39,4.88,3.94.58,4.71.14,9.59.07,15.36,9.92,9.44,12.92,21.2,10.41,34.19v1.76h.02c.41,6.59.89,14.8,1.42,24.24,1.23,22.14,1.33,27.28.51,33.95Z"/>
  </g>
</svg>