<?xml version="1.0" encoding="UTF-8"?>
<svg id="Layer_2" xmlns="http://www.w3.org/2000/svg" viewBox="0 0 27.11 56.86">
  <defs>
    <style>
      .cls-1 {
        fill: #28789f;
      }
    </style>
  </defs>
  <g id="Layer_1-2" data-name="Layer_1">
    <path class="cls-1" d="M27.11,14.59v42.27c-.74-.73-1.38-1.41-1.94-2.03-2.17-2.4-3.56-4.46-9.19-13.57-2.4-3.88-4.48-7.27-6.14-9.99l-.27-.41c-3.99-3.84-6.08-8.54-5.75-14.45.05-1.05.33-2.1.5-3.26C2.13,11.85.96,9.65.07,7.46c-.29-.68.34-2.18.99-2.71C3.12,3.07,5.31,1.56,7.62.27c.78-.43,2.52-.34,3.02.21,1.53,1.71,2.71,3.76,4.28,6.06,5.51.83,9.52,3.68,12.19,8.05Z"/>
  </g>
</svg>