<?xml version="1.0" encoding="UTF-8"?>
<svg id="Layer_1" data-name="Layer 1" xmlns="http://www.w3.org/2000/svg" viewBox="0 0 178.83 177.91">
  <defs>
    <style>
      .cls-1 {
        fill: #f5f5f5;
      }
    </style>
  </defs>
  <path class="cls-1" d="M88.81,129.26c-22.11,0-40.09-17.89-40.09-39.89s17.98-39.89,40.09-39.89,40.09,17.9,40.09,39.89c0,4.65-.8,9.21-2.37,13.54-.81,2.22-3.27,3.38-5.5,2.57-2.23-.8-3.39-3.25-2.58-5.47,1.24-3.4,1.86-6.99,1.86-10.64,0-17.28-14.13-31.34-31.5-31.34s-31.5,14.06-31.5,31.34,14.13,31.34,31.5,31.34c2.37,0,4.3,1.91,4.3,4.27s-1.92,4.27-4.3,4.27Z"/>
  <path class="cls-1" d="M112.03,93.13l-1.38,21.19c-.1,1.53,1.5,2.59,2.88,1.91l19.14-9.4c1.38-.68,1.51-2.59.22-3.44l-17.76-11.79c-1.28-.85-3.01,0-3.11,1.53h0Z"/>
  <path class="cls-1" d="M72.09,39.48l-13.61,8.65c-.69.43-1.34.94-1.88,1.55l-11.3,11.85-.47-.54c-6.41-5.11-10.14-11.78-10.5-20.53-.04-1.55.18-3.1.29-4.86-3.4-1.66-5.43-4.72-7.1-7.85-.51-.97.22-3.24,1.12-4.14,2.82-2.74,5.87-5.26,9.09-7.46,1.09-.75,3.69-.9,4.53-.15,2.54,2.31,4.49,5.19,7.13,8.36,9.88.58,16.94,5.58,21.65,13.87l1.05,1.26h0Z"/>
  <path class="cls-1" d="M112.46,40.16l-.15,1.62-15.79-3.46c-.8-.18-1.59-.25-2.43-.22l-16.4.43.07-.72c-.9-8.14,1.16-15.49,7.17-21.9,1.05-1.15,2.35-2.09,3.66-3.24-1.27-3.56-.51-7.17.54-10.52.32-1.05,2.46-2.16,3.73-2.16,3.95.04,7.89.4,11.77,1.12,1.3.25,3.22,1.98,3.26,3.1.15,3.38-.47,6.84-.87,10.95,6.55,7.31,8,15.89,5.43,25h0Z"/>
  <path class="cls-1" d="M162.75,42.04c-2.35,2.52-5.21,4.5-8.43,7.13-.58,9.8-5.61,16.86-13.9,21.5l-1.27,1.05-8.73-13.54c-.43-.68-.94-1.3-1.56-1.87l-11.91-11.24.54-.47c5.14-6.34,11.84-10.09,20.64-10.45,1.56-.04,3.15.18,4.92.29,1.63-3.38,4.71-5.37,7.86-7.02.98-.5,3.29.18,4.16,1.08,2.75,2.81,5.32,5.84,7.49,9.08.76,1.08.94,3.67.18,4.47Z"/>
  <path class="cls-1" d="M178.82,92.43c-.07,3.89-.4,7.82-1.16,11.67-.22,1.3-1.96,3.24-3.08,3.28-3.4.15-6.88-.5-11.01-.9-7.39,6.52-15.97,8-25.13,5.44l-1.63-.18,3.48-15.71c.18-.79.22-1.58.22-2.41l-.43-16.32.72.07c8.15-.9,15.57,1.15,22.01,7.13,1.12,1.05,2.1,2.34,3.26,3.64,3.58-1.23,7.17-.47,10.57.58,1.05.29,2.17,2.41,2.17,3.71h0Z"/>
  <path class="cls-1" d="M150.18,154.28c-2.83,2.77-5.87,5.29-9.13,7.49-1.09.76-3.69.9-4.49.15-2.54-2.31-4.53-5.19-7.17-8.36-9.85-.58-16.94-5.62-21.61-13.87l-1.05-1.26,13.61-8.65c.69-.47,1.3-.97,1.85-1.55l11.33-11.89.43.58c6.41,5.08,10.17,11.78,10.54,20.53.04,1.51-.18,3.1-.29,4.86,3.37,1.62,5.4,4.72,7.06,7.85.51.94-.18,3.24-1.09,4.11h0Z"/>
  <path class="cls-1" d="M93.85,162.02c-1.05,1.12-2.35,2.05-3.66,3.24,1.23,3.53.47,7.13-.54,10.52-.32,1.01-2.46,2.16-3.73,2.13-3.95-.04-7.89-.4-11.77-1.12-1.3-.25-3.22-1.98-3.29-3.06-.11-3.42.51-6.88.9-10.99-6.55-7.31-8-15.89-5.43-25l.15-1.62,15.79,3.46c.8.18,1.59.25,2.43.22l16.4-.4-.07.72c.9,8.1-1.16,15.45-7.17,21.9h0Z"/>
  <path class="cls-1" d="M61.84,132.85l-.58.47c-5.1,6.34-11.8,10.08-20.6,10.45-1.56.04-3.15-.18-4.92-.29-1.63,3.38-4.71,5.4-7.89,7.06-.94.5-3.26-.22-4.13-1.12-2.75-2.81-5.32-5.84-7.53-9.08-.72-1.08-.9-3.64-.15-4.47,2.35-2.52,5.21-4.5,8.43-7.1.58-9.83,5.61-16.86,13.9-21.54l1.27-1.05,8.73,13.54c.43.68.94,1.3,1.52,1.88l11.95,11.24h0Z"/>
  <path class="cls-1" d="M38.31,84.26l.4,16.35-.72-.07c-8.15.86-15.53-1.19-22.01-7.13-1.12-1.08-2.06-2.34-3.26-3.68-3.58,1.26-7.17.5-10.57-.54-1.05-.33-2.14-2.41-2.14-3.68.04-3.93.4-7.85,1.12-11.71.25-1.3,1.99-3.21,3.08-3.28,3.44-.11,6.88.5,11.01.9,7.39-6.52,15.97-7.96,25.16-5.4l1.59.14-3.44,15.67c-.18.83-.25,1.62-.22,2.41h0Z"/>
  <path class="cls-1" d="M72.09,39.48l-13.61,8.65c-.69.43-1.34.94-1.88,1.55l-11.3,11.85-.47-.54c-6.41-5.11-10.14-11.78-10.5-20.53-.04-1.55.18-3.1.29-4.86-3.4-1.66-5.43-4.72-7.1-7.85-.51-.97.22-3.24,1.12-4.14,2.82-2.74,5.87-5.26,9.09-7.46,1.09-.75,3.69-.9,4.53-.15,2.54,2.31,4.49,5.19,7.13,8.36,9.88.58,16.94,5.58,21.65,13.87l1.05,1.26h0Z"/>
  <path class="cls-1" d="M112.46,40.16l-.15,1.62-15.79-3.46c-.8-.18-1.59-.25-2.43-.22l-16.4.43.07-.72c-.9-8.14,1.16-15.49,7.17-21.9,1.05-1.15,2.35-2.09,3.66-3.24-1.27-3.56-.51-7.17.54-10.52.32-1.05,2.46-2.16,3.73-2.16,3.95.04,7.89.4,11.77,1.12,1.3.25,3.22,1.98,3.26,3.1.15,3.38-.47,6.84-.87,10.95,6.55,7.31,8,15.89,5.43,25h0Z"/>
  <path class="cls-1" d="M162.75,42.04c-2.35,2.52-5.21,4.5-8.43,7.13-.58,9.8-5.61,16.86-13.9,21.5l-1.27,1.05-8.73-13.54c-.43-.68-.94-1.3-1.56-1.87l-11.91-11.24.54-.47c5.14-6.34,11.84-10.09,20.64-10.45,1.56-.04,3.15.18,4.92.29,1.63-3.38,4.71-5.37,7.86-7.02.98-.5,3.29.18,4.16,1.08,2.75,2.81,5.32,5.84,7.49,9.08.76,1.08.94,3.67.18,4.47Z"/>
  <path class="cls-1" d="M178.82,92.43c-.07,3.89-.4,7.82-1.16,11.67-.22,1.3-1.96,3.24-3.08,3.28-3.4.15-6.88-.5-11.01-.9-7.39,6.52-15.97,8-25.13,5.44l-1.63-.18,3.48-15.71c.18-.79.22-1.58.22-2.41l-.43-16.32.72.07c8.15-.9,15.57,1.15,22.01,7.13,1.12,1.05,2.1,2.34,3.26,3.64,3.58-1.23,7.17-.47,10.57.58,1.05.29,2.17,2.41,2.17,3.71h0Z"/>
  <path class="cls-1" d="M150.18,154.28c-2.83,2.77-5.87,5.29-9.13,7.49-1.09.76-3.69.9-4.49.15-2.54-2.31-4.53-5.19-7.17-8.36-9.85-.58-16.94-5.62-21.61-13.87l-1.05-1.26,13.61-8.65c.69-.47,1.3-.97,1.85-1.55l11.33-11.89.43.58c6.41,5.08,10.17,11.78,10.54,20.53.04,1.51-.18,3.1-.29,4.86,3.37,1.62,5.4,4.72,7.06,7.85.51.94-.18,3.24-1.09,4.11h0Z"/>
  <path class="cls-1" d="M93.85,162.02c-1.05,1.12-2.35,2.05-3.66,3.24,1.23,3.53.47,7.13-.54,10.52-.32,1.01-2.46,2.16-3.73,2.13-3.95-.04-7.89-.4-11.77-1.12-1.3-.25-3.22-1.98-3.29-3.06-.11-3.42.51-6.88.9-10.99-6.55-7.31-8-15.89-5.43-25l.15-1.62,15.79,3.46c.8.18,1.59.25,2.43.22l16.4-.4-.07.72c.9,8.1-1.16,15.45-7.17,21.9h0Z"/>
  <path class="cls-1" d="M61.84,132.85l-.58.47c-5.1,6.34-11.8,10.08-20.6,10.45-1.56.04-3.15-.18-4.92-.29-1.63,3.38-4.71,5.4-7.89,7.06-.94.5-3.26-.22-4.13-1.12-2.75-2.81-5.32-5.84-7.53-9.08-.72-1.08-.9-3.64-.15-4.47,2.35-2.52,5.21-4.5,8.43-7.1.58-9.83,5.61-16.86,13.9-21.54l1.27-1.05,8.73,13.54c.43.68.94,1.3,1.52,1.88l11.95,11.24h0Z"/>
  <path class="cls-1" d="M38.31,84.26l.4,16.35-.72-.07c-8.15.86-15.53-1.19-22.01-7.13-1.12-1.08-2.06-2.34-3.26-3.68-3.58,1.26-7.17.5-10.57-.54-1.05-.33-2.14-2.41-2.14-3.68.04-3.93.4-7.85,1.12-11.71.25-1.3,1.99-3.21,3.08-3.28,3.44-.11,6.88.5,11.01.9,7.39-6.52,15.97-7.96,25.16-5.4l1.59.14-3.44,15.67c-.18.83-.25,1.62-.22,2.41h0Z"/>
</svg>