<?xml version="1.0" encoding="UTF-8"?>
<svg id="Layer_1" xmlns="http://www.w3.org/2000/svg" viewBox="0 0 763.62 753.44">
  <defs>
    <style>
      .cls-1 {
        fill: #fdc835;
      }

      .cls-2 {
        fill: #28789f;
      }

      .cls-3 {
        fill: #412f15;
      }

      .cls-4 {
        fill: #338000;
      }
    </style>
  </defs>
  <g>
    <path class="cls-3" d="M380.96,490.34c-62.06,0-112.56-50.49-112.56-112.56s50.49-112.56,112.56-112.56,112.56,50.5,112.56,112.56c0,13.12-2.24,25.98-6.66,38.22-2.26,6.27-9.17,9.53-15.44,7.25-6.27-2.26-9.51-9.17-7.25-15.44,3.47-9.61,5.23-19.71,5.23-30.03,0-48.77-39.67-88.44-88.44-88.44s-88.44,39.67-88.44,88.44,39.67,88.44,88.44,88.44c6.66,0,12.06,5.4,12.06,12.06s-5.4,12.06-12.06,12.06Z"/>
    <path class="cls-3" d="M446.14,388.4l-3.88,59.8c-.28,4.31,4.22,7.31,8.09,5.4l53.73-26.53c3.88-1.91,4.23-7.31.63-9.71l-49.85-33.26c-3.6-2.4-8.44,0-8.72,4.31Z"/>
  </g>
  <g>
    <g id="_x3C_Radial_Repeat_x3E_">
      <path class="cls-2" d="M334.01,237l-38.22,24.4c-1.93,1.22-3.76,2.64-5.29,4.37l-31.71,33.44-1.32-1.52c-17.99-14.43-28.46-33.24-29.48-57.94-.1-4.37.51-8.74.81-13.72-9.55-4.68-15.25-13.32-19.92-22.16-1.42-2.74.61-9.15,3.15-11.69,7.93-7.73,16.47-14.84,25.51-21.04,3.05-2.13,10.37-2.54,12.71-.41,7.12,6.51,12.6,14.64,20.02,23.58,27.75,1.63,47.57,15.76,60.78,39.13l2.95,3.56Z"/>
    </g>
    <g id="_x3C_Radial_Repeat_x3E_-2">
      <path class="cls-1" d="M447.35,238.93l-.41,4.57-44.32-9.76c-2.24-.51-4.47-.71-6.81-.61l-46.05,1.22.2-2.03c-2.54-22.97,3.25-43.71,20.13-61.8,2.95-3.25,6.61-5.9,10.27-9.15-3.56-10.06-1.42-20.23,1.52-29.68.91-2.95,6.91-6.1,10.47-6.1,11.08.1,22.16,1.12,33.04,3.15,3.66.71,9.05,5.59,9.15,8.74.41,9.55-1.32,19.31-2.44,30.9,18.4,20.63,22.46,44.83,15.25,70.54Z"/>
    </g>
    <g id="_x3C_Radial_Repeat_x3E_-3">
      <path class="cls-4" d="M588.53,244.22c-6.61,7.12-14.64,12.71-23.68,20.13-1.63,27.65-15.76,47.57-39.03,60.68l-3.56,2.95-24.5-38.22c-1.22-1.93-2.64-3.66-4.37-5.29l-33.44-31.71,1.52-1.32c14.43-17.89,33.24-28.46,57.94-29.48,4.37-.1,8.84.51,13.82.81,4.57-9.55,13.21-15.15,22.06-19.82,2.74-1.42,9.25.51,11.69,3.05,7.73,7.93,14.94,16.47,21.04,25.62,2.13,3.05,2.64,10.37.51,12.6Z"/>
    </g>
    <g id="_x3C_Radial_Repeat_x3E_-4">
      <path class="cls-3" d="M633.66,386.42c-.2,10.98-1.12,22.06-3.25,32.93-.61,3.66-5.49,9.15-8.64,9.25-9.55.41-19.31-1.42-30.9-2.54-20.74,18.4-44.83,22.57-70.54,15.35l-4.57-.51,9.76-44.32c.51-2.24.61-4.47.61-6.81l-1.22-46.05,2.03.2c22.87-2.54,43.71,3.25,61.8,20.13,3.15,2.95,5.9,6.61,9.15,10.27,10.06-3.46,20.13-1.32,29.68,1.63,2.95.81,6.1,6.81,6.1,10.47Z"/>
    </g>
    <g id="_x3C_Radial_Repeat_x3E_-5">
      <path class="cls-2" d="M553.26,560.95c-7.93,7.83-16.47,14.94-25.62,21.14-3.05,2.13-10.37,2.54-12.6.41-7.12-6.51-12.71-14.64-20.13-23.58-27.65-1.63-47.57-15.86-60.68-39.13l-2.95-3.56,38.22-24.4c1.93-1.32,3.66-2.74,5.18-4.37l31.81-33.54,1.22,1.63c17.99,14.33,28.56,33.24,29.58,57.94.1,4.27-.51,8.74-.81,13.72,9.45,4.57,15.15,13.32,19.82,22.16,1.42,2.64-.51,9.15-3.05,11.59Z"/>
    </g>
    <g id="_x3C_Radial_Repeat_x3E_-6">
      <path class="cls-1" d="M395.1,582.8c-2.95,3.15-6.61,5.79-10.27,9.15,3.46,9.96,1.32,20.13-1.52,29.68-.91,2.85-6.91,6.1-10.47,6-11.08-.1-22.16-1.12-33.04-3.15-3.66-.71-9.05-5.59-9.25-8.64-.3-9.66,1.42-19.41,2.54-31-18.4-20.63-22.46-44.83-15.25-70.54l.41-4.57,44.32,9.76c2.24.51,4.47.71,6.81.61l46.05-1.12-.2,2.03c2.54,22.87-3.25,43.61-20.13,61.8Z"/>
    </g>
    <g id="_x3C_Radial_Repeat_x3E_-7">
      <path class="cls-4" d="M305.24,500.47l-1.63,1.32c-14.33,17.89-33.14,28.46-57.84,29.48-4.37.1-8.84-.51-13.82-.81-4.57,9.55-13.21,15.25-22.16,19.92-2.64,1.42-9.15-.61-11.59-3.15-7.73-7.93-14.94-16.47-21.14-25.62-2.03-3.05-2.54-10.27-.41-12.6,6.61-7.11,14.64-12.71,23.68-20.02,1.63-27.75,15.76-47.57,39.03-60.78l3.56-2.95,24.5,38.22c1.22,1.93,2.64,3.66,4.27,5.29l33.54,31.71Z"/>
    </g>
    <g id="_x3C_Radial_Repeat_x3E_-8">
      <path class="cls-3" d="M239.17,363.35l1.12,46.15-2.03-.2c-22.87,2.44-43.61-3.35-61.8-20.13-3.15-3.05-5.79-6.61-9.15-10.37-10.06,3.56-20.13,1.42-29.68-1.52-2.95-.92-6-6.81-6-10.37.1-11.08,1.12-22.16,3.15-33.04.71-3.66,5.59-9.05,8.64-9.25,9.66-.31,19.31,1.42,30.9,2.54,20.74-18.4,44.83-22.46,70.64-15.25l4.47.41-9.66,44.22c-.51,2.34-.71,4.57-.61,6.81Z"/>
    </g>
  </g>
</svg>