<?xml version="1.0" encoding="UTF-8"?>
<svg id="Layer_1" xmlns="http://www.w3.org/2000/svg" viewBox="0 0 200.14 71.69">
  <defs>
    <style>
      .cls-1 {
        fill: #fdc835;
      }

      .cls-2 {
        fill: #28789f;
      }

      .cls-3 {
        fill: #412f15;
      }

      .cls-4 {
        fill: #338000;
      }
    </style>
  </defs>
  <g>
    <g>
      <path class="cls-3" d="M96.09,43.8c.38.7-.05,1.45-.89,1.45h-3.06c-.27,0-.51-.13-.62-.38l-2.79-5.4c-.05-.08-.13-.13-.21-.13h-1.07c-.48,0-.83.35-.83.83v4.25c0,.48-.35.83-.83.83h-3.01c-.48,0-.83-.35-.83-.83v-17.15c0-.48.35-.83.83-.83h5.88c4.78,0,6.72,2.04,6.72,6.45,0,2.5-.62,4.25-2.04,5.27-.11.08-.13.22-.08.35l2.85,5.29h-.02ZM87.44,31.06c-.48,0-.83.35-.83.83v1.99c0,.48.35.83.83.83h1.37c1.29,0,1.93-.16,1.93-1.83s-.64-1.83-1.93-1.83h-1.37Z"/>
      <path class="cls-3" d="M109.96,26.44c.54,0,.81.27.81.81v3.01c0,.51-.27.81-.81.81h-6.5c-.51,0-.81.27-.81.81v.86c0,.51.29.81.81.81h4.17c.54,0,.81.27.81.81v3.01c0,.51-.27.81-.81.81h-4.17c-.51,0-.81.27-.81.81v.86c0,.51.29.81.81.81h6.5c.54,0,.81.27.81.81v3.01c0,.54-.27.81-.81.81h-11.29c-.51,0-.81-.3-.81-.81v-17.2c0-.54.3-.81.81-.81h11.29v-.03Z"/>
    </g>
    <path class="cls-3" d="M132.86,26.44c4.78,0,6.72,2.04,6.72,6.45s-1.93,6.45-6.72,6.45h-1.29c-.51,0-.81.27-.81.81v4.3c0,.54-.27.81-.81.81h-3.01c-.51,0-.81-.3-.81-.81v-17.17c0-.54.27-.81.81-.83h5.92ZM133.02,34.71c1.29,0,1.93-.16,1.93-1.83s-.64-1.83-1.93-1.83h-1.45c-.51,0-.81.27-.81.81v2.04c0,.51.3.81.81.81h1.45Z"/>
    <path class="cls-3" d="M145.06,26.44c.54,0,.81.27.81.81v12.58c0,.51.3.81.81.81h5.99c.54,0,.81.27.81.81v3.01c0,.54-.27.81-.81.81h-10.62c-.51,0-.81-.3-.81-.81v-17.2c0-.54.3-.81.81-.81h3.01Z"/>
    <path class="cls-3" d="M168.18,44.58c0,.59-.27.91-.81.91h-3.01c-.51,0-.81-.27-.81-.81v-2.34c0-.54-.27-.81-.81-.81h-2.31c-.51,0-.81.27-.81.81v2.34c0,.54-.27.81-.81.81h-3.01c-.51,0-.81-.32-.81-.91v-11.39c0-3.39.54-6.99,6.58-6.99s6.58,3.6,6.58,6.99v11.39h.03ZM163.56,33.18c0-1.29-.19-1.94-1.96-1.94s-1.96.65-1.96,1.94v2.93c0,.51.29.81.81.81h2.31c.54-.03.81-.3.81-.83v-2.9h0Z"/>
    <path class="cls-3" d="M180.11,33.12c-.54.11-.81-.13-.89-.67-.19-1.1-1.07-1.8-2.34-1.8-1.05,0-1.69.62-1.59,1.24.38,2.1,8.87,2.04,8.87,8.22,0,.81-.91,5.56-7.28,5.56-5.64,0-6.85-3.71-6.99-5.8-.03-.48.21-.78.7-.89l3.04-.67c.54-.11.83.13.89.7.11,1.29,1.1,2.04,2.36,2.04s2.28-.78,2.12-1.5c-.51-2.28-8.6-1.77-8.6-7.96-.03-.81.46-5.56,6.48-5.56,5.54,0,6.83,3.6,6.99,5.54.03.48-.21.78-.7.88l-3.06.67h0Z"/>
    <path class="cls-3" d="M190.14,31.87c0-.54-.27-.81-.81-.81h-3.76c-.51,0-.81-.3-.81-.81v-3.01c0-.54.3-.81.81-.81h13.76c.54,0,.81.27.81.81v3.01c0,.51-.27.81-.81.81h-3.76c-.51,0-.81.27-.81.81v12.58c0,.51-.27.81-.81.81h-3.01c-.51,0-.81-.3-.81-.81v-12.58h0Z"/>
    <path class="cls-3" d="M116.72,38.16h-2.1c-.28,0-.45-.3-.45-.81v-3.01c0-.54.16-.81.45-.81h7.67c.3,0,.45.27.45.81v3.01c0,.51-.15.81-.45.81h-2.1"/>
  </g>
  <g>
    <path class="cls-3" d="M53.19,43.05l-7.67,3.78c-.56.28-1.2-.15-1.16-.77l.55-8.53c.04-.62.74-.96,1.25-.62l1.88,1.26c.13-.71.19-1.43.19-2.16,0-6.96-5.66-12.62-12.62-12.62s-12.63,5.66-12.63,12.62,5.67,12.63,12.63,12.63c.95,0,1.72.77,1.72,1.72s-.77,1.72-1.72,1.72c-8.86,0-16.07-7.21-16.07-16.07s7.21-16.07,16.07-16.07,16.07,7.21,16.07,16.07c0,1.43-.19,2.84-.56,4.21l2.16,1.44c.51.34.46,1.11-.09,1.39Z"/>
    <g>
      <g id="_x3C_Radial_Repeat_x3E_">
        <path class="cls-2" d="M28.9,15.91l-5.46,3.48c-.28.17-.54.38-.75.62l-4.53,4.77-.19-.22c-2.57-2.06-4.06-4.75-4.21-8.27-.01-.62.07-1.25.12-1.96-1.36-.67-2.18-1.9-2.84-3.16-.2-.39.09-1.31.45-1.67,1.13-1.1,2.35-2.12,3.64-3,.44-.3,1.48-.36,1.81-.06,1.02.93,1.8,2.09,2.86,3.37,3.96.23,6.79,2.25,8.68,5.59,0,0,.42.51.42.51Z"/>
      </g>
      <g id="_x3C_Radial_Repeat_x3E_-2">
        <path class="cls-1" d="M45.08,16.19l-.06.65-6.33-1.39c-.32-.07-.64-.1-.97-.09l-6.57.17.03-.29c-.36-3.28.46-6.24,2.87-8.82.42-.46.94-.84,1.47-1.31-.51-1.44-.2-2.89.22-4.24.13-.42.99-.87,1.49-.87,1.58.01,3.16.16,4.72.45.52.1,1.29.8,1.31,1.25.06,1.36-.19,2.76-.35,4.41,2.63,2.95,3.21,6.4,2.18,10.07h-.01Z"/>
      </g>
      <g id="_x3C_Radial_Repeat_x3E_-3">
        <path class="cls-4" d="M65.24,16.94c-.94,1.02-2.09,1.81-3.38,2.87-.23,3.95-2.25,6.79-5.57,8.66l-.51.42-3.5-5.46c-.17-.28-.38-.52-.62-.75l-4.77-4.53.22-.19c2.06-2.55,4.75-4.06,8.27-4.21.62-.01,1.26.07,1.97.12.65-1.36,1.89-2.16,3.15-2.83.39-.2,1.32.07,1.67.44,1.1,1.13,2.13,2.35,3,3.66.3.44.38,1.48.07,1.8Z"/>
      </g>
      <g id="_x3C_Radial_Repeat_x3E_-4">
        <path class="cls-3" d="M71.68,37.24c-.03,1.57-.16,3.15-.46,4.7-.09.52-.78,1.31-1.23,1.32-1.36.06-2.76-.2-4.41-.36-2.96,2.63-6.4,3.22-10.07,2.19l-.65-.07,1.39-6.33c.07-.32.09-.64.09-.97l-.17-6.57.29.03c3.26-.36,6.24.46,8.82,2.87.45.42.84.94,1.31,1.47,1.44-.49,2.87-.19,4.24.23.42.12.87.97.87,1.49h-.02Z"/>
      </g>
      <g id="_x3C_Radial_Repeat_x3E_-5">
        <path class="cls-2" d="M60.2,62.16c-1.13,1.12-2.35,2.13-3.66,3.02-.44.3-1.48.36-1.8.06-1.02-.93-1.81-2.09-2.87-3.37-3.95-.23-6.79-2.26-8.66-5.59l-.42-.51,5.46-3.48c.28-.19.52-.39.74-.62l4.54-4.79.17.23c2.57,2.05,4.08,4.75,4.22,8.27.01.61-.07,1.25-.12,1.96,1.35.65,2.16,1.9,2.83,3.16.2.38-.07,1.31-.44,1.65h.01Z"/>
      </g>
      <g id="_x3C_Radial_Repeat_x3E_-6">
        <path class="cls-1" d="M37.62,65.28c-.42.45-.94.83-1.47,1.31.49,1.42.19,2.87-.22,4.24-.13.41-.99.87-1.49.86-1.58-.01-3.16-.16-4.72-.45-.52-.1-1.29-.8-1.32-1.23-.04-1.38.2-2.77.36-4.43-2.63-2.95-3.21-6.4-2.18-10.07l.06-.65,6.33,1.39c.32.07.64.1.97.09l6.57-.16-.03.29c.36,3.26-.46,6.23-2.87,8.82h.01Z"/>
      </g>
      <g id="_x3C_Radial_Repeat_x3E_-7">
        <path class="cls-4" d="M24.8,53.53l-.23.19c-2.05,2.55-4.73,4.06-8.26,4.21-.62.01-1.26-.07-1.97-.12-.65,1.36-1.89,2.18-3.16,2.84-.38.2-1.31-.09-1.65-.45-1.1-1.13-2.13-2.35-3.02-3.66-.29-.44-.36-1.47-.06-1.8.94-1.02,2.09-1.81,3.38-2.86.23-3.96,2.25-6.79,5.57-8.68l.51-.42,3.5,5.46c.17.28.38.52.61.75l4.79,4.53h-.01Z"/>
      </g>
      <g id="_x3C_Radial_Repeat_x3E_-8">
        <path class="cls-3" d="M15.36,33.95l.16,6.59-.29-.03c-3.26.35-6.23-.48-8.82-2.87-.45-.44-.83-.94-1.31-1.48-1.44.51-2.87.2-4.24-.22-.42-.13-.86-.97-.86-1.48.01-1.58.16-3.16.45-4.72.1-.52.8-1.29,1.23-1.32,1.38-.04,2.76.2,4.41.36,2.96-2.63,6.4-3.21,10.09-2.18l.64.06-1.38,6.31c-.07.33-.1.65-.09.97h.01Z"/>
      </g>
    </g>
  </g>
</svg>