<?xml version="1.0" encoding="UTF-8"?>
<svg id="Layer_2" xmlns="http://www.w3.org/2000/svg" xmlns:xlink="http://www.w3.org/1999/xlink" viewBox="0 0 199.71 199.63">
  <defs>
    <style>
      .cls-1 {
        clip-path: url(#clippath-6);
      }

      .cls-2 {
        clip-path: url(#clippath-7);
      }

      .cls-3 {
        clip-path: url(#clippath-4);
      }

      .cls-4 {
        clip-path: url(#clippath-9);
      }

      .cls-5 {
        clip-path: url(#clippath-10);
      }

      .cls-6 {
        clip-path: url(#clippath-11);
      }

      .cls-7 {
        fill: none;
      }

      .cls-8 {
        fill: #fcc736;
      }

      .cls-9 {
        clip-path: url(#clippath-1);
      }

      .cls-10 {
        clip-path: url(#clippath-5);
      }

      .cls-11 {
        clip-path: url(#clippath-8);
      }

      .cls-12 {
        clip-path: url(#clippath-3);
      }

      .cls-13 {
        clip-path: url(#clippath-12);
      }

      .cls-14 {
        clip-path: url(#clippath-14);
      }

      .cls-15 {
        clip-path: url(#clippath-2);
      }

      .cls-16 {
        clip-path: url(#clippath-13);
      }

      .cls-17 {
        clip-path: url(#clippath);
      }
    </style>
    <clipPath id="clippath">
      <rect class="cls-7" x="46.47" y="45.67" width="106.76" height="108.28"/>
    </clipPath>
    <clipPath id="clippath-1">
      <rect class="cls-7" x="25.27" y="143.92" width="30.03" height="29.61" transform="translate(-99.97 74.2) rotate(-44.68)"/>
    </clipPath>
    <clipPath id="clippath-2">
      <rect class="cls-7" x="5.6" y="112.24" width="30.03" height="29.61" transform="translate(-40.17 13.6) rotate(-18.97)"/>
    </clipPath>
    <clipPath id="clippath-3">
      <rect class="cls-7" x="1.85" y="74.96" width="29.61" height="30.03" transform="translate(-74.65 95.94) rotate(-83.25)"/>
    </clipPath>
    <clipPath id="clippath-4">
      <rect class="cls-7" x="14.36" y="39.83" width="29.61" height="30.03" transform="translate(-32.77 50.02) rotate(-57.54)"/>
    </clipPath>
    <clipPath id="clippath-5">
      <rect class="cls-7" x="40.87" y="13.61" width="29.61" height="30.03" transform="translate(-6.73 33.66) rotate(-31.82)"/>
    </clipPath>
    <clipPath id="clippath-6">
      <rect class="cls-7" x="76.13" y="1.49" width="29.61" height="30.03" transform="translate(-1.24 9.77) rotate(-6.11)"/>
    </clipPath>
    <clipPath id="clippath-7">
      <rect class="cls-7" x="112.95" y="6.08" width="30.03" height="29.61" transform="translate(65.35 134.43) rotate(-70.4)"/>
    </clipPath>
    <clipPath id="clippath-8">
      <rect class="cls-7" x="144.41" y="26.09" width="30.03" height="29.61" transform="translate(17.31 123.92) rotate(-44.68)"/>
    </clipPath>
    <clipPath id="clippath-9">
      <rect class="cls-7" x="164.07" y="57.78" width="30.03" height="29.61" transform="translate(-13.87 62.15) rotate(-18.97)"/>
    </clipPath>
    <clipPath id="clippath-10">
      <rect class="cls-7" x="168.25" y="94.64" width="29.61" height="30.03" transform="translate(52.66 278.57) rotate(-83.25)"/>
    </clipPath>
    <clipPath id="clippath-11">
      <rect class="cls-7" x="155.74" y="129.77" width="29.61" height="30.03" transform="translate(-43.15 210.98) rotate(-57.54)"/>
    </clipPath>
    <clipPath id="clippath-12">
      <rect class="cls-7" x="129.23" y="155.99" width="29.61" height="30.03" transform="translate(-68.52 101.66) rotate(-31.82)"/>
    </clipPath>
    <clipPath id="clippath-13">
      <rect class="cls-7" x="93.97" y="168.11" width="29.61" height="30.03" transform="translate(-18.87 12.62) rotate(-6.11)"/>
    </clipPath>
    <clipPath id="clippath-14">
      <rect class="cls-7" x="56.73" y="163.93" width="30.03" height="29.61" transform="translate(-120.71 186.36) rotate(-70.4)"/>
    </clipPath>
  </defs>
  <g id="Layer_1-2" data-name="Layer_1">
    <g class="cls-17">
      <path class="cls-8" d="M99.86,153.96c29.48,0,53.38-24.24,53.38-54.14s-23.9-54.14-53.38-54.14-53.38,24.24-53.38,54.14,23.9,54.14,53.38,54.14"/>
    </g>
    <g>
      <g id="_x3C_Radial_Repeat_x3E_">
        <g class="cls-9">
          <path class="cls-8" d="M50.96,148.17c-5.75-5.81-15.19-5.8-21.09.03-5.9,5.83-6.02,15.27-.27,21.09,5.75,5.81,15.19,5.8,21.09-.03s6.02-15.27.27-21.09"/>
        </g>
      </g>
      <g id="_x3C_Radial_Repeat_x3E_-2" data-name="_x3C_Radial_Repeat_x3E_">
        <g class="cls-15">
          <path class="cls-8" d="M34.82,122.17c-2.66-7.73-11.17-11.82-19.01-9.12-7.84,2.7-12.05,11.15-9.39,18.88,2.66,7.73,11.17,11.82,19.01,9.12,7.84-2.7,12.05-11.15,9.39-18.88"/>
        </g>
      </g>
      <g id="_x3C_Radial_Repeat_x3E_-3" data-name="_x3C_Radial_Repeat_x3E_">
        <g class="cls-12">
          <path class="cls-8" d="M31.57,91.74c.96-8.12-4.94-15.49-13.17-16.47-8.24-.97-15.69,4.82-16.65,12.94-.96,8.12,4.94,15.49,13.17,16.47,8.24.97,15.69-4.82,16.65-12.94"/>
        </g>
      </g>
      <g id="_x3C_Radial_Repeat_x3E_-4" data-name="_x3C_Radial_Repeat_x3E_">
        <g class="cls-3">
          <path class="cls-8" d="M41.83,62.91c4.39-6.9,2.27-16.1-4.72-20.55-7-4.45-16.23-2.47-20.62,4.43-4.39,6.9-2.27,16.1,4.72,20.55,7,4.45,16.23,2.47,20.62-4.43"/>
        </g>
      </g>
      <g id="_x3C_Radial_Repeat_x3E_-5" data-name="_x3C_Radial_Repeat_x3E_">
        <g class="cls-10">
          <path class="cls-8" d="M63.59,41.39c6.95-4.31,9.04-13.52,4.66-20.57-4.37-7.05-13.55-9.26-20.5-4.95-6.95,4.31-9.04,13.52-4.66,20.57s13.55,9.26,20.5,4.95"/>
        </g>
      </g>
      <g id="_x3C_Radial_Repeat_x3E_-6" data-name="_x3C_Radial_Repeat_x3E_">
        <g class="cls-1">
          <path class="cls-8" d="M92.54,31.44c8.13-.87,14.01-8.26,13.12-16.51-.88-8.25-8.19-14.23-16.32-13.36-8.13.87-14.01,8.26-13.12,16.51.88,8.25,8.19,14.23,16.32,13.36"/>
        </g>
      </g>
      <g id="_x3C_Radial_Repeat_x3E_-7" data-name="_x3C_Radial_Repeat_x3E_">
        <g class="cls-2">
          <path class="cls-8" d="M122.93,35.03c7.7,2.74,16.2-1.37,18.99-9.18,2.78-7.81-1.21-16.37-8.91-19.11-7.7-2.74-16.2,1.37-18.99,9.18-2.78,7.81,1.21,16.37,8.91,19.11"/>
        </g>
      </g>
      <g id="_x3C_Radial_Repeat_x3E_-8" data-name="_x3C_Radial_Repeat_x3E_">
        <g class="cls-11">
          <path class="cls-8" d="M148.75,51.46c5.75,5.81,15.19,5.8,21.09-.03,5.9-5.83,6.02-15.27.27-21.09-5.75-5.81-15.19-5.8-21.09.03-5.9,5.83-6.02,15.27-.27,21.09"/>
        </g>
      </g>
      <g id="_x3C_Radial_Repeat_x3E_-9" data-name="_x3C_Radial_Repeat_x3E_">
        <g class="cls-4">
          <path class="cls-8" d="M164.89,77.46c2.66,7.73,11.17,11.82,19.01,9.12,7.84-2.7,12.05-11.15,9.39-18.88-2.66-7.73-11.17-11.82-19.01-9.12-7.84,2.7-12.05,11.15-9.39,18.88"/>
        </g>
      </g>
      <g id="_x3C_Radial_Repeat_x3E_-10" data-name="_x3C_Radial_Repeat_x3E_">
        <g class="cls-5">
          <path class="cls-8" d="M168.15,107.89c-.96,8.12,4.94,15.49,13.17,16.47,8.24.97,15.69-4.82,16.65-12.94.96-8.12-4.94-15.49-13.17-16.47-8.24-.97-15.69,4.82-16.65,12.94"/>
        </g>
      </g>
      <g id="_x3C_Radial_Repeat_x3E_-11" data-name="_x3C_Radial_Repeat_x3E_">
        <g class="cls-6">
          <path class="cls-8" d="M157.88,136.72c-4.39,6.9-2.27,16.1,4.72,20.55,7,4.45,16.23,2.47,20.62-4.43,4.39-6.9,2.27-16.1-4.72-20.55-7-4.45-16.23-2.47-20.62,4.43"/>
        </g>
      </g>
      <g id="_x3C_Radial_Repeat_x3E_-12" data-name="_x3C_Radial_Repeat_x3E_">
        <g class="cls-13">
          <path class="cls-8" d="M136.12,158.24c-6.95,4.31-9.04,13.52-4.66,20.57,4.37,7.05,13.55,9.26,20.5,4.95,6.95-4.31,9.04-13.52,4.66-20.57-4.37-7.05-13.55-9.26-20.5-4.95"/>
        </g>
      </g>
      <g id="_x3C_Radial_Repeat_x3E_-13" data-name="_x3C_Radial_Repeat_x3E_">
        <g class="cls-16">
          <path class="cls-8" d="M107.17,168.19c-8.13.87-14.01,8.26-13.12,16.51.88,8.25,8.19,14.23,16.32,13.36,8.13-.87,14.01-8.26,13.12-16.51-.88-8.25-8.19-14.23-16.32-13.36"/>
        </g>
      </g>
      <g id="_x3C_Radial_Repeat_x3E_-14" data-name="_x3C_Radial_Repeat_x3E_">
        <g class="cls-14">
          <path class="cls-8" d="M76.78,164.59c-7.7-2.74-16.2,1.37-18.99,9.18-2.78,7.81,1.21,16.37,8.91,19.11s16.2-1.37,18.99-9.18c2.78-7.81-1.21-16.37-8.91-19.11"/>
        </g>
      </g>
    </g>
  </g>
</svg>