<?xml version="1.0" encoding="UTF-8"?>
<svg id="Layer_2" xmlns="http://www.w3.org/2000/svg" viewBox="0 0 24.67 55.46">
  <defs>
    <style>
      .cls-1 {
        fill: #28789f;
      }
    </style>
  </defs>
  <g id="Layer_1-2" data-name="Layer_1">
    <path class="cls-1" d="M24.57,7.66c-1.02,2.05-2.5,3.9-4.06,6.2,1.47,6.45-.46,11.98-4.94,16.54l-.47.71h.01c-1.59,2.77-3.59,6.2-5.89,10.14C3.81,50.49,2.47,52.59.36,55.05c-.12.13-.24.27-.36.41V11.53c1.91-1.92,4.3-3.39,7.25-4.37,1-.34,2.08-.47,3.22-.74.41-2.51,2.02-4.4,3.74-6.04.52-.51,2.15-.47,2.88-.07,2.32,1.3,4.52,2.79,6.57,4.47.69.56,1.25,2.21.91,2.88Z"/>
  </g>
</svg>